<svg width="350" height="250" viewBox="0 0 350 250" fill="none" xmlns="http://www.w3.org/2000/svg">
    <defs>
        <linearGradient id="ecommerceGradient" x1="0%" y1="0%" x2="100%" y2="100%">
            <stop offset="0%" stop-color="#ff004f"/>
            <stop offset="50%" stop-color="#ff9800"/>
            <stop offset="100%" stop-color="#4caf50"/>
        </linearGradient>
    </defs>
    
    <!-- Background -->
    <rect width="350" height="250" fill="#1a1a1a" rx="10"/>
    
    <!-- Browser window -->
    <rect x="25" y="30" width="300" height="190" fill="#fff" rx="8"/>
    
    <!-- Browser header -->
    <rect x="25" y="30" width="300" height="25" fill="#f5f5f5" rx="8 8 0 0"/>
    <circle cx="40" cy="42" r="3" fill="#ff5f56"/>
    <circle cx="55" cy="42" r="3" fill="#ffbd2e"/>
    <circle cx="70" cy="42" r="3" fill="#27ca3f"/>
    
    <!-- Navigation bar -->
    <rect x="35" y="65" width="280" height="20" fill="#ff004f" opacity="0.1" rx="3"/>
    <rect x="45" y="70" width="60" height="10" fill="url(#ecommerceGradient)" opacity="0.7" rx="2"/>
    
    <!-- Product grid -->
    <rect x="45" y="100" width="60" height="50" fill="url(#ecommerceGradient)" opacity="0.6" rx="5"/>
    <rect x="120" y="100" width="60" height="50" fill="url(#ecommerceGradient)" opacity="0.7" rx="5"/>
    <rect x="195" y="100" width="60" height="50" fill="url(#ecommerceGradient)" opacity="0.8" rx="5"/>
    <rect x="270" y="100" width="35" height="50" fill="url(#ecommerceGradient)" opacity="0.5" rx="5"/>
    
    <!-- Product details -->
    <rect x="45" y="160" width="40" height="3" fill="#ddd" rx="1"/>
    <rect x="45" y="170" width="25" height="3" fill="#ff004f" rx="1"/>
    
    <rect x="120" y="160" width="40" height="3" fill="#ddd" rx="1"/>
    <rect x="120" y="170" width="30" height="3" fill="#ff004f" rx="1"/>
    
    <rect x="195" y="160" width="40" height="3" fill="#ddd" rx="1"/>
    <rect x="195" y="170" width="35" height="3" fill="#ff004f" rx="1"/>
    
    <!-- Shopping cart icon -->
    <circle cx="310" cy="75" r="8" fill="#ff004f" opacity="0.8"/>
    <rect x="305" y="72" width="10" height="6" fill="#fff" stroke="#fff" stroke-width="1" rx="1"/>
</svg>